HIERARCHY
ROOT Hips
{
	OFFSET 0.000000 100.481300 0.000000
	CHANNELS 6 Xposition Yposition Zposition Xrotation Yrotation Zrotation 
	JOINT Spine
	{
		OFFSET -0.279200 12.230698 -2.892100
		CHANNELS 3 Xrotation Yrotation Zrotation
		JOINT Spine1
		{
			OFFSET -0.232667 10.192268 -1.242267
			CHANNELS 3 Xrotation Yrotation Zrotation
			JOINT Spine1_split
			{
				OFFSET -0.232667 10.192268 -1.242267
				CHANNELS 3 Xrotation Yrotation Zrotation
				JOINT Spine2
				{
					OFFSET -0.232667 10.192268 -1.242267
					CHANNELS 3 Xrotation Yrotation Zrotation
					JOINT Neck
					{
						OFFSET -0.418800 17.814194 8.416900
						CHANNELS 3 Xrotation Yrotation Zrotation
						JOINT Head
						{
							OFFSET 0.000000 7.031097 3.806800
							CHANNELS 3 Xrotation Yrotation Zrotation
							JOINT HeadTop_End
							{
								OFFSET 0.000000 24.646606 12.978600
								CHANNELS 3 Xrotation Yrotation Zrotation
								End Site
								{
									OFFSET 0.000000 0.000000 0.000000
								}
							}
						}
					}
					JOINT LeftShoulder
					{
						OFFSET 8.476499 7.247704 -3.868750
						CHANNELS 3 Xrotation Yrotation Zrotation
						JOINT LeftShoulder_split
						{
							OFFSET 8.476499 7.247704 -3.868750
							CHANNELS 3 Xrotation Yrotation Zrotation
							JOINT LeftArm
							{
								OFFSET 9.308998 -2.777710 0.208600
								CHANNELS 3 Xrotation Yrotation Zrotation
								JOINT LeftForeArm
								{
									OFFSET 29.972298 0.000000 0.000000
									CHANNELS 3 Xrotation Yrotation Zrotation
									JOINT LeftHand
									{
										OFFSET 26.026505 0.000000 0.000000
										CHANNELS 3 Xrotation Yrotation Zrotation
										JOINT LeftHandThumb1
										{
											OFFSET 12.240501 -7.147949 9.207150
											CHANNELS 3 Xrotation Yrotation Zrotation
											JOINT LeftHandThumb2
											{
												OFFSET 4.138618 -2.389435 2.389433
												CHANNELS 3 Xrotation Yrotation Zrotation
												JOINT LeftHandThumb3
												{
													OFFSET 2.726913 -1.574387 1.574386
													CHANNELS 3 Xrotation Yrotation Zrotation
													JOINT LeftHandThumb4
													{
														OFFSET 3.941010 -2.275345 2.275342
														CHANNELS 3 Xrotation Yrotation Zrotation
														End Site
														{
															OFFSET 0.000000 0.000000 0.000000
														}
													}
												}
											}
										}
										JOINT LeftHandIndex1
										{
											OFFSET 24.424698 -1.985611 5.953459
											CHANNELS 3 Xrotation Yrotation Zrotation
											JOINT LeftHandIndex2
											{
												OFFSET 6.426697 0.000000 0.000000
												CHANNELS 3 Xrotation Yrotation Zrotation
												JOINT LeftHandIndex3
												{
													OFFSET 5.337898 0.000000 0.000000
													CHANNELS 3 Xrotation Yrotation Zrotation
													JOINT LeftHandIndex4
													{
														OFFSET 4.409401 0.000000 0.000000
														CHANNELS 3 Xrotation Yrotation Zrotation
														End Site
														{
															OFFSET 0.000000 0.000000 0.000000
														}
													}
												}
											}
										}
										JOINT LeftHandMiddle1
										{
											OFFSET 23.810104 0.000000 0.000000
											CHANNELS 3 Xrotation Yrotation Zrotation
											JOINT LeftHandMiddle2
											{
												OFFSET 7.176498 0.000000 0.000000
												CHANNELS 3 Xrotation Yrotation Zrotation
												JOINT LeftHandMiddle3
												{
													OFFSET 6.774902 0.000000 0.000000
													CHANNELS 3 Xrotation Yrotation Zrotation
													JOINT LeftHandMiddle4
													{
														OFFSET 5.403328 0.000000 0.000000
														CHANNELS 3 Xrotation Yrotation Zrotation
														End Site
														{
															OFFSET 0.000000 0.000000 0.000000
														}
													}
												}
											}
										}
										JOINT LeftHandRing1
										{
											OFFSET 22.908401 -0.839279 -6.020567
											CHANNELS 3 Xrotation Yrotation Zrotation
											JOINT LeftHandRing2
											{
												OFFSET 6.337502 0.000000 0.000000
												CHANNELS 3 Xrotation Yrotation Zrotation
												JOINT LeftHandRing3
												{
													OFFSET 5.779297 0.000000 0.000000
													CHANNELS 3 Xrotation Yrotation Zrotation
													JOINT LeftHandRing4
													{
														OFFSET 4.965698 0.000000 0.000000
														CHANNELS 3 Xrotation Yrotation Zrotation
														End Site
														{
															OFFSET 0.000000 0.000000 0.000000
														}
													}
												}
											}
										}
										JOINT LeftHandPinky1
										{
											OFFSET 20.037003 -1.530319 -10.950146
											CHANNELS 3 Xrotation Yrotation Zrotation
											JOINT LeftHandPinky2
											{
												OFFSET 5.254700 0.000000 0.000000
												CHANNELS 3 Xrotation Yrotation Zrotation
												JOINT LeftHandPinky3
												{
													OFFSET 4.810204 0.000000 0.000000
													CHANNELS 3 Xrotation Yrotation Zrotation
													JOINT LeftHandPinky4
													{
														OFFSET 3.647202 0.000000 0.000000
														CHANNELS 3 Xrotation Yrotation Zrotation
														End Site
														{
															OFFSET 0.000000 0.000000 0.000000
														}
													}
												}
											}
										}
									}
								}
							}
						}
					}
					JOINT RightShoulder
					{
						OFFSET -7.570500 7.247704 -3.868750
						CHANNELS 3 Xrotation Yrotation Zrotation
						JOINT RightShoulder_split
						{
							OFFSET -7.570500 7.247704 -3.868750
							CHANNELS 3 Xrotation Yrotation Zrotation
							JOINT RightArm
							{
								OFFSET -9.308998 -2.777710 0.208500
								CHANNELS 3 Xrotation Yrotation Zrotation
								JOINT RightForeArm
								{
									OFFSET -29.972300 0.000000 0.000000
									CHANNELS 3 Xrotation Yrotation Zrotation
									JOINT RightHand
									{
										OFFSET -26.026505 0.000000 0.000000
										CHANNELS 3 Xrotation Yrotation Zrotation
										JOINT RightHandThumb1
										{
											OFFSET -12.240601 -7.148026 9.207092
											CHANNELS 3 Xrotation Yrotation Zrotation
											JOINT RightHandThumb2
											{
												OFFSET -4.138618 -2.389435 2.389433
												CHANNELS 3 Xrotation Yrotation Zrotation
												JOINT RightHandThumb3
												{
													OFFSET -2.726974 -1.574417 1.574421
													CHANNELS 3 Xrotation Yrotation Zrotation
													JOINT RightHandThumb4
													{
														OFFSET -3.941010 -2.275345 2.275343
														CHANNELS 3 Xrotation Yrotation Zrotation
														End Site
														{
															OFFSET 0.000000 0.000000 0.000000
														}
													}
												}
											}
										}
										JOINT RightHandIndex1
										{
											OFFSET -24.424698 -1.985657 5.953444
											CHANNELS 3 Xrotation Yrotation Zrotation
											JOINT RightHandIndex2
											{
												OFFSET -6.426697 0.000000 0.000000
												CHANNELS 3 Xrotation Yrotation Zrotation
												JOINT RightHandIndex3
												{
													OFFSET -5.337898 0.000000 0.000000
													CHANNELS 3 Xrotation Yrotation Zrotation
													JOINT RightHandIndex4
													{
														OFFSET -4.409401 0.000000 0.000000
														CHANNELS 3 Xrotation Yrotation Zrotation
														End Site
														{
															OFFSET 0.000000 0.000000 0.000000
														}
													}
												}
											}
										}
										JOINT RightHandMiddle1
										{
											OFFSET -23.810097 0.000000 0.000000
											CHANNELS 3 Xrotation Yrotation Zrotation
											JOINT RightHandMiddle2
											{
												OFFSET -7.176498 0.000000 0.000000
												CHANNELS 3 Xrotation Yrotation Zrotation
												JOINT RightHandMiddle3
												{
													OFFSET -6.774902 0.000000 0.000000
													CHANNELS 3 Xrotation Yrotation Zrotation
													JOINT RightHandMiddle4
													{
														OFFSET -5.403328 0.000000 0.000000
														CHANNELS 3 Xrotation Yrotation Zrotation
														End Site
														{
															OFFSET 0.000000 0.000000 0.000000
														}
													}
												}
											}
										}
										JOINT RightHandRing1
										{
											OFFSET -22.908302 -0.839325 -6.020576
											CHANNELS 3 Xrotation Yrotation Zrotation
											JOINT RightHandRing2
											{
												OFFSET -6.337502 0.000000 0.000000
												CHANNELS 3 Xrotation Yrotation Zrotation
												JOINT RightHandRing3
												{
													OFFSET -5.779297 0.000000 0.000000
													CHANNELS 3 Xrotation Yrotation Zrotation
													JOINT RightHandRing4
													{
														OFFSET -4.965698 0.000000 0.000000
														CHANNELS 3 Xrotation Yrotation Zrotation
														End Site
														{
															OFFSET 0.000000 0.000000 0.000000
														}
													}
												}
											}
										}
										JOINT RightHandPinky1
										{
											OFFSET -20.037003 -1.530334 -10.950259
											CHANNELS 3 Xrotation Yrotation Zrotation
											JOINT RightHandPinky2
											{
												OFFSET -5.254700 0.000000 0.000000
												CHANNELS 3 Xrotation Yrotation Zrotation
												JOINT RightHandPinky3
												{
													OFFSET -4.810204 0.000000 0.000000
													CHANNELS 3 Xrotation Yrotation Zrotation
													JOINT RightHandPinky4
													{
														OFFSET -3.647202 0.000000 0.000000
														CHANNELS 3 Xrotation Yrotation Zrotation
														End Site
														{
															OFFSET 0.000000 0.000000 0.000000
														}
													}
												}
											}
										}
									}
								}
							}
						}
					}
				}
			}
		}
	}
	JOINT LeftUpLeg
	{
		OFFSET 15.427100 -6.655098 0.678600
		CHANNELS 3 Xrotation Yrotation Zrotation
		JOINT LeftLeg
		{
			OFFSET 4.081073 -39.591068 13.024000
			CHANNELS 3 Xrotation Yrotation Zrotation
			JOINT LeftFoot
			{
				OFFSET -4.081074 -37.707932 -15.979700
				CHANNELS 3 Xrotation Yrotation Zrotation
				JOINT LeftToeBase
				{
					OFFSET 5.346399 -15.068900 20.645000
					CHANNELS 3 Xrotation Yrotation Zrotation
					JOINT LeftToe_End
					{
						OFFSET 2.754700 0.931300 11.300900
						CHANNELS 3 Xrotation Yrotation Zrotation
						End Site
						{
							OFFSET 0.000000 0.000000 0.000000
						}
					}
				}
			}
		}
	}
	JOINT RightUpLeg
	{
		OFFSET -15.569500 -6.655098 0.678600
		CHANNELS 3 Xrotation Yrotation Zrotation
		JOINT RightLeg
		{
			OFFSET -4.081825 -39.591045 13.023800
			CHANNELS 3 Xrotation Yrotation Zrotation
			JOINT RightFoot
			{
				OFFSET 4.081824 -37.707954 -15.979600
				CHANNELS 3 Xrotation Yrotation Zrotation
				JOINT RightToeBase
				{
					OFFSET -5.346400 -15.068900 20.645000
					CHANNELS 3 Xrotation Yrotation Zrotation
					JOINT RightToe_End
					{
						OFFSET -2.754700 0.931300 11.300900
						CHANNELS 3 Xrotation Yrotation Zrotation
						End Site
						{
							OFFSET 0.000000 0.000000 0.000000
						}
					}
				}
			}
		}
	}
}
MOTION
Frames: 4
Frame Time: 0.016667
-33.528492 38.103951 281.243439 189.999211 13.636847 -177.623891 16.817083 -3.801789 -8.604126 3.969193 -0.741156 -2.119502 0.000000 0.000000 0.000000 3.979512 -0.739448 -2.101519 0.912695 0.186794 0.154901 -20.090704 -2.727756 8.655180 0.000000 0.000000 -0.000000 1.384110 -5.715093 -11.757633 0.000000 0.000000 0.000000 -18.360568 -40.146220 -47.046104 -180.000060 -123.144540 -180.000073 40.891888 -11.279968 -14.873587 -9.353703 -4.410865 -1.012467 21.377783 38.831138 0.008472 -0.454422 -2.425681 17.060576 0.000000 0.000000 -0.000001 1.241272 5.556498 -31.143730 2.581743 4.855110 -55.983912 0.249908 1.694444 -16.778558 0.000000 0.000002 0.000001 2.333419 7.138687 -41.308219 3.977877 5.544103 -71.298132 0.237204 1.651759 -16.343596 0.000001 0.000001 -0.000002 2.817945 7.449828 -47.416597 3.975399 5.543280 -71.272416 0.379547 2.076177 -20.717432 -0.000001 -0.000003 0.000001 2.416429 7.232766 -41.295515 3.976817 5.543749 -71.287074 0.529521 2.435817 -24.525966 -0.000002 0.000002 0.000001 -4.126464 21.353058 -2.025800 0.000000 0.000000 0.000000 -21.913711 29.410767 24.489283 -0.000008 107.646411 0.000021 -60.125855 14.340455 -11.279295 49.904507 33.562508 -17.441694 11.431406 -12.158967 7.800692 -6.278444 -26.632919 -3.654652 0.000003 -0.000001 -0.000000 0.249890 -3.804215 14.940634 2.023879 -3.842600 55.538713 0.811596 -2.628891 34.307514 -0.000001 0.000000 0.000000 1.128254 -5.542192 26.437086 1.145646 -3.061070 41.030285 0.800425 -2.612474 34.063455 -0.000001 0.000002 -0.000001 1.283863 -5.672059 29.821893 1.502255 -3.427476 47.325274 0.373373 -1.828838 23.076436 -0.000001 0.000001 0.000001 1.244953 -5.502215 26.494323 0.986046 -2.867626 37.944679 0.613159 -2.311746 29.706596 0.000000 -0.000000 -0.000001 -88.534865 -9.160080 47.139531 102.026880 -14.453906 -10.923271 4.933205 -8.848791 7.693599 -0.468319 0.000000 -0.000001 0.000000 -0.000001 0.000000 -90.508107 26.048204 -31.992821 105.387394 11.870830 11.987581 2.782326 2.012931 -8.042549 -0.706161 0.000015 0.000005 -0.000000 -0.000001 -0.000001 
-33.523243 38.105049 281.242798 189.955716 13.638897 -177.625162 16.804605 -3.787728 -8.589611 3.960997 -0.736598 -2.125366 0.000000 0.000000 0.000000 3.971171 -0.734081 -2.108096 0.911077 0.174948 0.179146 -20.499629 -2.826075 8.645563 -0.000001 0.000000 -0.000000 1.385421 -5.719502 -11.741866 0.000000 0.000000 0.000000 -18.383994 -40.127331 -47.070594 -179.999978 -123.195166 -179.999978 40.970436 -11.176341 -14.771742 -9.625173 -4.324131 -1.515795 21.379100 38.837569 0.008471 -0.454410 -2.425716 17.060575 0.000001 -0.000001 0.000001 1.241005 5.556774 -31.144051 2.581822 4.855163 -55.984919 0.276265 1.779496 -17.648213 0.000000 -0.000001 0.000000 2.333950 7.139070 -41.314585 3.978631 5.544363 -71.305911 0.262284 1.734964 -17.192180 0.000000 0.000003 -0.000002 2.846249 7.466681 -47.739887 3.975202 5.543209 -71.270469 0.419584 2.179052 -21.796037 0.000000 0.000001 -0.000001 2.416449 7.232765 -41.296027 3.978173 5.544206 -71.301028 0.585050 2.553910 -25.801678 -0.000000 -0.000003 -0.000000 -4.269430 21.023290 -2.430173 0.000000 0.000000 0.000000 -22.824073 29.584295 24.643082 0.000037 108.149495 -0.000039 -60.083938 15.273698 -11.131798 49.905105 33.561354 -17.441696 11.433890 -12.159209 7.799872 -6.274820 -26.631553 -3.651583 -0.000000 0.000000 -0.000001 0.250029 -3.804666 14.942270 2.024050 -3.842680 55.541025 0.811669 -2.628993 34.308996 0.000001 0.000002 0.000003 1.128563 -5.542706 26.438815 1.145700 -3.061176 41.031764 0.800494 -2.612554 34.064605 -0.000001 0.000002 0.000001 1.283035 -5.670582 29.822453 1.502284 -3.427520 47.325923 0.373415 -1.828929 23.077696 0.000001 0.000001 0.000002 1.248103 -5.501245 26.496587 0.986110 -2.867736 37.946352 0.613141 -2.311700 29.706074 -0.000002 0.000001 0.000003 -88.571229 -9.194048 47.116089 102.028075 -14.451492 -10.919620 4.928905 -8.826877 7.668718 -0.467156 0.000003 0.000006 -0.000000 -0.000000 0.000000 -90.539956 26.028832 -31.995885 105.384915 11.873467 11.996885 2.786258 2.013074 -8.049889 -0.706774 -0.000013 -0.000000 -0.000000 0.000001 -0.000000 
-33.515759 38.107529 281.240936 189.948285 13.648938 -177.629424 16.795454 -3.775862 -8.576250 3.953006 -0.732008 -2.129828 0.000000 0.000000 0.000000 3.963044 -0.728878 -2.113284 0.909233 0.164212 0.204963 -20.937817 -2.917530 8.648820 0.000001 0.000001 0.000000 1.385788 -5.726411 -11.728821 0.000000 0.000000 0.000000 -18.401739 -40.104286 -47.092792 -179.999991 -123.229235 -179.999978 41.050554 -11.060305 -14.665977 -9.875555 -4.238464 -2.020552 21.379095 38.837566 0.008472 -0.454406 -2.425724 17.060587 0.000000 0.000001 0.000001 1.240747 5.557017 -31.144426 2.581909 4.855229 -55.985999 0.303762 1.863665 -18.513098 -0.000003 0.000003 -0.000001 2.334240 7.139300 -41.318055 3.978887 5.544437 -71.308609 0.288383 1.817139 -18.034344 0.000000 0.000001 0.000000 2.874040 7.483015 -48.056180 3.975047 5.543148 -71.268864 0.461142 2.280161 -22.864178 -0.000000 0.000002 0.000000 2.416460 7.232766 -41.296560 3.978217 5.544235 -71.301588 0.642696 2.669736 -27.066465 0.000001 0.000004 -0.000002 -4.382717 20.715692 -2.732457 0.000000 0.000000 0.000000 -23.680771 29.747878 24.695012 -0.000011 108.551889 0.000005 -59.952655 16.384381 -10.967013 49.905727 33.560230 -17.441720 11.436418 -12.159717 7.799021 -6.271267 -26.630218 -3.648561 -0.000001 -0.000003 0.000003 0.250175 -3.805104 14.943889 2.024198 -3.842788 55.543303 0.811727 -2.629085 34.310448 0.000001 -0.000001 -0.000001 1.128867 -5.543228 26.440521 1.145810 -3.061258 41.033348 0.800539 -2.612632 34.065808 0.000000 0.000000 -0.000000 1.282237 -5.669142 29.823468 1.502367 -3.427571 47.327006 0.373465 -1.829028 23.079108 0.000002 -0.000002 0.000000 1.251235 -5.500294 26.498844 0.986199 -2.867833 37.947971 0.613135 -2.311667 29.705620 0.000001 0.000002 0.000002 -88.571455 -9.211240 47.090418 102.031463 -14.454067 -10.911979 4.921493 -8.805627 7.679119 -0.465206 -0.000003 -0.000003 0.000000 0.000001 0.000000 -90.552879 26.000444 -31.988122 105.384505 11.876020 12.001467 2.768841 2.012047 -8.069383 -0.707368 -0.000020 0.000002 -0.000001 0.000000 -0.000000 
-33.509369 38.108047 281.234863 189.937589 13.659902 -177.631623 16.786769 -3.769565 -8.561815 3.944886 -0.728167 -2.131930 0.000000 0.000000 0.000000 3.954816 -0.724028 -2.115638 0.906906 0.156212 0.232183 -21.411175 -2.995298 8.669107 0.000000 -0.000003 -0.000000 1.385082 -5.737307 -11.717945 0.000000 0.000000 0.000000 -18.413633 -40.072372 -47.113047 -180.000005 -123.249138 -180.000019 41.115321 -10.949181 -14.571604 -10.109461 -4.152928 -2.519851 21.379088 38.837548 0.008474 -0.454416 -2.425698 17.060576 -0.000000 -0.000002 0.000001 1.240492 5.557301 -31.144969 2.582017 4.855292 -55.987211 0.332072 1.946128 -19.364841 0.000004 -0.000002 -0.000002 2.334410 7.139421 -41.320192 3.979027 5.544489 -71.309968 0.315225 1.897563 -18.862699 -0.000000 -0.000001 0.000001 2.901205 7.498768 -48.364610 3.974914 5.543104 -71.267546 0.503791 2.378674 -23.913476 -0.000000 0.000004 0.000001 2.416486 7.232771 -41.297144 3.977464 5.543974 -71.293726 0.701828 2.782299 -28.309806 -0.000002 -0.000000 -0.000001 -4.490359 20.422747 -2.985064 0.000000 0.000000 0.000000 -24.488608 29.920921 24.697435 -0.000003 108.890366 0.000003 -59.803128 17.545378 -10.769461 49.906375 33.559117 -17.441793 11.438873 -12.160191 7.798185 -6.267752 -26.628951 -3.645588 -0.000000 0.000002 -0.000002 0.250308 -3.805531 14.945477 2.024341 -3.842898 55.545578 0.811773 -2.629185 34.311916 0.000000 -0.000000 0.000001 1.129156 -5.543741 26.442089 1.145908 -3.061383 41.035339 0.800598 -2.612721 34.067057 0.000001 -0.000001 0.000001 1.281497 -5.667794 29.825500 1.502486 -3.427673 47.328935 0.373491 -1.829141 23.080604 0.000002 -0.000001 0.000002 1.254259 -5.499363 26.501067 0.986293 -2.867935 37.949586 0.613105 -2.311643 29.705241 -0.000001 -0.000001 -0.000002 -88.557460 -9.243852 47.082560 102.031032 -14.463554 -10.909217 4.914398 -8.783473 7.629647 -0.463053 0.000001 -0.000003 -0.000000 0.000001 -0.000000 -90.569517 25.979251 -31.985472 105.376862 11.882915 12.009053 2.773027 2.011099 -8.087048 -0.707946 -0.000001 0.000003 0.000001 -0.000001 -0.000001 
